<svg width="17" height="17" viewBox="0 0 17 17" fill="none" xmlns="http://www.w3.org/2000/svg">
<path d="M5.45887 3.81606C5.43991 4.04147 5.11191 4.09847 5.00642 3.89468L4.43834 2.79755C4.4016 2.72646 4.32675 2.67895 4.24209 2.6728L2.93485 2.57797C2.692 2.56037 2.63061 2.25589 2.85016 2.15794L4.03196 1.63061C4.10849 1.59645 4.15977 1.52703 4.16632 1.44842L4.26849 0.234818C4.28745 0.00940731 4.61545 -0.0475867 4.72095 0.156199L5.28902 1.25334C5.32576 1.32443 5.40052 1.37195 5.48527 1.37808L6.79252 1.47291C7.03536 1.49051 7.09675 1.79499 6.8772 1.89294L5.6954 2.42027C5.61878 2.45445 5.56759 2.52385 5.56104 2.60247L5.45887 3.81606Z" fill="white"/>
<path d="M1.70581 4.6442C1.67416 4.75336 1.50731 4.75336 1.47565 4.6442L1.30518 4.05649C1.29417 4.01841 1.26209 3.98867 1.22109 3.97842L0.588026 3.82018C0.470422 3.79079 0.470422 3.63591 0.588026 3.60652L1.22109 3.44828C1.26209 3.43802 1.29417 3.40828 1.30518 3.37021L1.47565 2.78249C1.50731 2.67333 1.67416 2.67333 1.70581 2.78249L1.87628 3.37021C1.88729 3.40828 1.91933 3.43802 1.96037 3.44828L2.59344 3.60652C2.71104 3.63591 2.71104 3.79079 2.59344 3.82018L1.96037 3.97842C1.91933 3.98867 1.88729 4.01841 1.87628 4.05649L1.70581 4.6442Z" fill="white"/>
<path d="M3.88794 8.01993C3.85628 8.1291 3.68944 8.1291 3.65778 8.01993L3.48731 7.43222C3.4763 7.39414 3.44422 7.3644 3.40322 7.35415L2.77015 7.19591C2.65255 7.16652 2.65255 7.01164 2.77015 6.98225L3.40322 6.82401C3.44422 6.81375 3.4763 6.78402 3.48731 6.74594L3.65778 6.15822C3.68944 6.04906 3.85628 6.04906 3.88794 6.15822L4.05841 6.74594C4.06942 6.78402 4.10145 6.81375 4.1425 6.82401L4.77557 6.98225C4.89317 7.01164 4.89317 7.16652 4.77557 7.19591L4.1425 7.35415C4.10145 7.3644 4.06942 7.39414 4.05841 7.43222L3.88794 8.01993Z" fill="white"/>
<path d="M2.03109 6.69688C2.00998 6.76966 1.89875 6.76966 1.87765 6.69688L1.764 6.30507C1.75666 6.27969 1.73527 6.25986 1.70794 6.25303L1.2859 6.14753C1.20749 6.12794 1.20749 6.02469 1.2859 6.00509L1.70794 5.8996C1.73527 5.89276 1.75666 5.87294 1.764 5.84755L1.87765 5.45574C1.89875 5.38297 2.00998 5.38297 2.03109 5.45574L2.14473 5.84755C2.15207 5.87294 2.17343 5.89276 2.20079 5.8996L2.62284 6.00509C2.70124 6.02469 2.70124 6.12794 2.62284 6.14753L2.20079 6.25303C2.17343 6.25986 2.15207 6.27969 2.14473 6.30507L2.03109 6.69688Z" fill="white"/>
<path d="M7.12239 5.34666C7.10129 5.41944 6.99006 5.41944 6.96896 5.34666L6.85531 4.95485C6.84797 4.92947 6.82658 4.90964 6.79925 4.90281L6.37721 4.79731C6.2988 4.77772 6.2988 4.67447 6.37721 4.65487L6.79925 4.54938C6.82658 4.54254 6.84797 4.52272 6.85531 4.49733L6.96896 4.10552C6.99006 4.03275 7.10129 4.03275 7.12239 4.10552L7.23604 4.49733C7.24338 4.52272 7.26474 4.54254 7.2921 4.54938L7.71415 4.65487C7.79255 4.67447 7.79255 4.77772 7.71415 4.79731L7.2921 4.90281C7.26474 4.90964 7.24338 4.92947 7.23604 4.95485L7.12239 5.34666Z" fill="white"/>
<path d="M14.3184 13.503L13.5912 14.1782M4.15802 4.54228L15.9627 14.5877C16.2557 14.8371 16.2657 15.2629 15.9846 15.5239V15.5239C15.7046 15.7839 15.2499 15.7777 14.9807 15.508C10.905 11.4231 3.72867 4.20747 4.15802 4.54228Z" stroke="white"/>
</svg>
