<svg width="17" height="17" viewBox="0 0 17 17" fill="none" xmlns="http://www.w3.org/2000/svg">
<path d="M4.95838 3.81606C4.93942 4.04147 4.61142 4.09847 4.50593 3.89468L3.93786 2.79755C3.90112 2.72646 3.82626 2.67895 3.7416 2.6728L2.43436 2.57797C2.19152 2.56037 2.13013 2.25589 2.34967 2.15794L3.53147 1.63061C3.608 1.59645 3.65928 1.52703 3.66584 1.44842L3.768 0.234818C3.78696 0.00940731 4.11496 -0.0475867 4.22046 0.156199L4.78853 1.25334C4.82527 1.32443 4.90003 1.37195 4.98478 1.37808L6.29203 1.47291C6.53487 1.49051 6.59626 1.79499 6.37672 1.89294L5.19492 2.42027C5.11829 2.45445 5.0671 2.52385 5.06055 2.60247L4.95838 3.81606Z" fill="white"/>
<path d="M1.20581 4.6442C1.17416 4.75336 1.00731 4.75336 0.975654 4.6442L0.805184 4.05649C0.794172 4.01841 0.76209 3.98867 0.721093 3.97842L0.0880257 3.82018C-0.0295779 3.79079 -0.0295779 3.63591 0.0880257 3.60652L0.721093 3.44828C0.76209 3.43802 0.794172 3.40828 0.805184 3.37021L0.975654 2.78249C1.00731 2.67333 1.17416 2.67333 1.20581 2.78249L1.37628 3.37021C1.38729 3.40828 1.41933 3.43802 1.46037 3.44828L2.09344 3.60652C2.21104 3.63591 2.21104 3.79079 2.09344 3.82018L1.46037 3.97842C1.41933 3.98867 1.38729 4.01841 1.37628 4.05649L1.20581 4.6442Z" fill="white"/>
<path d="M3.38745 8.01993C3.3558 8.1291 3.18895 8.1291 3.1573 8.01993L2.98682 7.43222C2.97581 7.39414 2.94373 7.3644 2.90273 7.35415L2.26967 7.19591C2.15206 7.16652 2.15206 7.01164 2.26967 6.98225L2.90273 6.82401C2.94373 6.81375 2.97581 6.78402 2.98682 6.74594L3.1573 6.15822C3.18895 6.04906 3.3558 6.04906 3.38745 6.15822L3.55792 6.74594C3.56893 6.78402 3.60097 6.81375 3.64201 6.82401L4.27508 6.98225C4.39268 7.01164 4.39268 7.16652 4.27508 7.19591L3.64201 7.35415C3.60097 7.3644 3.56893 7.39414 3.55792 7.43222L3.38745 8.01993Z" fill="white"/>
<path d="M1.53109 6.69688C1.50998 6.76966 1.39875 6.76966 1.37765 6.69688L1.264 6.30507C1.25666 6.27969 1.23527 6.25986 1.20794 6.25303L0.785897 6.14753C0.707495 6.12794 0.707495 6.02469 0.785897 6.00509L1.20794 5.8996C1.23527 5.89276 1.25666 5.87294 1.264 5.84755L1.37765 5.45574C1.39875 5.38297 1.50998 5.38297 1.53109 5.45574L1.64473 5.84755C1.65207 5.87294 1.67343 5.89276 1.70079 5.8996L2.12284 6.00509C2.20124 6.02469 2.20124 6.12794 2.12284 6.14753L1.70079 6.25303C1.67343 6.25986 1.65207 6.27969 1.64473 6.30507L1.53109 6.69688Z" fill="white"/>
<path d="M6.62191 5.34666C6.6008 5.41944 6.48957 5.41944 6.46847 5.34666L6.35482 4.95485C6.34748 4.92947 6.32609 4.90964 6.29876 4.90281L5.87672 4.79731C5.79832 4.77772 5.79832 4.67447 5.87672 4.65487L6.29876 4.54938C6.32609 4.54254 6.34748 4.52272 6.35482 4.49733L6.46847 4.10552C6.48957 4.03275 6.6008 4.03275 6.62191 4.10552L6.73555 4.49733C6.74289 4.52272 6.76425 4.54254 6.79161 4.54938L7.21366 4.65487C7.29206 4.67447 7.29206 4.77772 7.21366 4.79731L6.79161 4.90281C6.76425 4.90964 6.74289 4.92947 6.73555 4.95485L6.62191 5.34666Z" fill="white"/>
<path d="M13.8184 13.503L13.0912 14.1782M3.65802 4.54228L15.4627 14.5877C15.7557 14.8371 15.7657 15.2629 15.4846 15.5239V15.5239C15.2046 15.7839 14.7499 15.7777 14.4807 15.508C10.405 11.4231 3.22867 4.20747 3.65802 4.54228Z" stroke="white"/>
</svg>
