<svg width="17" height="17" viewBox="0 0 17 17" fill="none" xmlns="http://www.w3.org/2000/svg">
<path d="M5.54432 3.81606C5.52536 4.04147 5.19736 4.09847 5.09187 3.89468L4.52379 2.79755C4.48705 2.72646 4.4122 2.67895 4.32754 2.6728L3.02029 2.57797C2.77745 2.56037 2.71606 2.25589 2.93561 2.15794L4.11741 1.63061C4.19394 1.59645 4.24522 1.52703 4.25177 1.44842L4.35394 0.234818C4.3729 0.00940731 4.7009 -0.0475867 4.80639 0.156199L5.37447 1.25334C5.41121 1.32443 5.48597 1.37195 5.57072 1.37808L6.87797 1.47291C7.12081 1.49051 7.1822 1.79499 6.96265 1.89294L5.78085 2.42027C5.70423 2.45445 5.65304 2.52385 5.64649 2.60247L5.54432 3.81606Z" fill="white"/>
<path d="M1.79175 4.6442C1.76009 4.75336 1.59325 4.75336 1.56159 4.6442L1.39112 4.05649C1.38011 4.01841 1.34803 3.98867 1.30703 3.97842L0.673963 3.82018C0.55636 3.79079 0.55636 3.63591 0.673963 3.60652L1.30703 3.44828C1.34803 3.43802 1.38011 3.40828 1.39112 3.37021L1.56159 2.78249C1.59325 2.67333 1.76009 2.67333 1.79175 2.78249L1.96222 3.37021C1.97323 3.40828 2.00526 3.43802 2.04631 3.44828L2.67938 3.60652C2.79698 3.63591 2.79698 3.79079 2.67938 3.82018L2.04631 3.97842C2.00526 3.98867 1.97323 4.01841 1.96222 4.05649L1.79175 4.6442Z" fill="white"/>
<path d="M3.97339 8.01993C3.94173 8.1291 3.77489 8.1291 3.74323 8.01993L3.57276 7.43222C3.56175 7.39414 3.52967 7.3644 3.48867 7.35415L2.8556 7.19591C2.738 7.16652 2.738 7.01164 2.8556 6.98225L3.48867 6.82401C3.52967 6.81375 3.56175 6.78402 3.57276 6.74594L3.74323 6.15822C3.77489 6.04906 3.94173 6.04906 3.97339 6.15822L4.14386 6.74594C4.15487 6.78402 4.1869 6.81375 4.22795 6.82401L4.86102 6.98225C4.97862 7.01164 4.97862 7.16652 4.86102 7.19591L4.22795 7.35415C4.1869 7.3644 4.15487 7.39414 4.14386 7.43222L3.97339 8.01993Z" fill="white"/>
<path d="M2.11702 6.69694C2.09592 6.76972 1.98469 6.76972 1.96359 6.69694L1.84994 6.30513C1.8426 6.27975 1.82121 6.25992 1.79388 6.25309L1.37183 6.14759C1.29343 6.128 1.29343 6.02475 1.37183 6.00515L1.79388 5.89966C1.82121 5.89282 1.8426 5.873 1.84994 5.84761L1.96359 5.4558C1.98469 5.38303 2.09592 5.38303 2.11702 5.4558L2.23067 5.84761C2.23801 5.873 2.25937 5.89282 2.28673 5.89966L2.70878 6.00515C2.78718 6.02475 2.78718 6.128 2.70878 6.14759L2.28673 6.25309C2.25937 6.25992 2.23801 6.27975 2.23067 6.30513L2.11702 6.69694Z" fill="white"/>
<path d="M7.20784 5.34666C7.18674 5.41944 7.07551 5.41944 7.05441 5.34666L6.94076 4.95485C6.93342 4.92947 6.91203 4.90964 6.8847 4.90281L6.46265 4.79731C6.38425 4.77772 6.38425 4.67447 6.46265 4.65487L6.8847 4.54938C6.91203 4.54254 6.93342 4.52272 6.94076 4.49733L7.05441 4.10552C7.07551 4.03275 7.18674 4.03275 7.20784 4.10552L7.32149 4.49733C7.32883 4.52272 7.35019 4.54254 7.37755 4.54938L7.7996 4.65487C7.878 4.67447 7.878 4.77772 7.7996 4.79731L7.37755 4.90281C7.35019 4.90964 7.32883 4.92947 7.32149 4.95485L7.20784 5.34666Z" fill="white"/>
<path d="M14.4044 13.503L13.6771 14.1782M4.24396 4.54228L16.0486 14.5877C16.3417 14.8371 16.3516 15.2629 16.0705 15.5239V15.5239C15.7905 15.7839 15.3358 15.7777 15.0667 15.508C10.9909 11.4231 3.8146 4.20747 4.24396 4.54228Z" stroke="white"/>
</svg>
