<svg width="17" height="17" viewBox="0 0 17 17" fill="none" xmlns="http://www.w3.org/2000/svg">
<path d="M5.45887 3.81606C5.43991 4.04147 5.11191 4.09847 5.00642 3.89468L4.43834 2.79755C4.4016 2.72646 4.32675 2.67895 4.24209 2.6728L2.93485 2.57797C2.692 2.56037 2.63061 2.25589 2.85016 2.15794L4.03196 1.63061C4.10849 1.59645 4.15977 1.52703 4.16632 1.44842L4.26849 0.234818C4.28745 0.00940731 4.61545 -0.0475867 4.72095 0.156199L5.28902 1.25334C5.32576 1.32443 5.40052 1.37195 5.48527 1.37808L6.79252 1.47291C7.03536 1.49051 7.09675 1.79499 6.8772 1.89294L5.6954 2.42027C5.61878 2.45445 5.56759 2.52385 5.56104 2.60247L5.45887 3.81606Z" fill="white"/>
<path d="M1.70605 4.6442C1.6744 4.75336 1.50755 4.75336 1.4759 4.6442L1.30543 4.05649C1.29442 4.01841 1.26233 3.98867 1.22134 3.97842L0.58827 3.82018C0.470666 3.79079 0.470666 3.63591 0.58827 3.60652L1.22134 3.44828C1.26233 3.43802 1.29442 3.40828 1.30543 3.37021L1.4759 2.78249C1.50755 2.67333 1.6744 2.67333 1.70605 2.78249L1.87652 3.37021C1.88754 3.40828 1.91957 3.43802 1.96061 3.44828L2.59368 3.60652C2.71129 3.63591 2.71129 3.79079 2.59368 3.82018L1.96061 3.97842C1.91957 3.98867 1.88754 4.01841 1.87652 4.05649L1.70605 4.6442Z" fill="white"/>
<path d="M3.88769 8.01993C3.85604 8.1291 3.68919 8.1291 3.65754 8.01993L3.48707 7.43222C3.47606 7.39414 3.44398 7.3644 3.40298 7.35415L2.76991 7.19591C2.65231 7.16652 2.65231 7.01164 2.76991 6.98225L3.40298 6.82401C3.44398 6.81375 3.47606 6.78402 3.48707 6.74594L3.65754 6.15822C3.68919 6.04906 3.85604 6.04906 3.88769 6.15822L4.05816 6.74594C4.06918 6.78402 4.10121 6.81375 4.14226 6.82401L4.77532 6.98225C4.89293 7.01164 4.89293 7.16652 4.77532 7.19591L4.14226 7.35415C4.10121 7.3644 4.06918 7.39414 4.05816 7.43222L3.88769 8.01993Z" fill="white"/>
<path d="M2.03133 6.69688C2.01023 6.76966 1.899 6.76966 1.87789 6.69688L1.76425 6.30507C1.75691 6.27969 1.73552 6.25986 1.70819 6.25303L1.28614 6.14753C1.20774 6.12794 1.20774 6.02469 1.28614 6.00509L1.70819 5.8996C1.73552 5.89276 1.75691 5.87294 1.76425 5.84755L1.87789 5.45574C1.899 5.38297 2.01023 5.38297 2.03133 5.45574L2.14498 5.84755C2.15232 5.87294 2.17367 5.89276 2.20104 5.8996L2.62308 6.00509C2.70149 6.02469 2.70149 6.12794 2.62308 6.14753L2.20104 6.25303C2.17367 6.25986 2.15232 6.27969 2.14498 6.30507L2.03133 6.69688Z" fill="white"/>
<path d="M7.12215 5.34666C7.10105 5.41944 6.98982 5.41944 6.96871 5.34666L6.85507 4.95485C6.84773 4.92947 6.82634 4.90964 6.79901 4.90281L6.37696 4.79731C6.29856 4.77772 6.29856 4.67447 6.37696 4.65487L6.79901 4.54938C6.82634 4.54254 6.84773 4.52272 6.85507 4.49733L6.96871 4.10552C6.98982 4.03275 7.10105 4.03275 7.12215 4.10552L7.2358 4.49733C7.24314 4.52272 7.2645 4.54254 7.29186 4.54938L7.7139 4.65487C7.79231 4.67447 7.79231 4.77772 7.7139 4.79731L7.29186 4.90281C7.2645 4.90964 7.24314 4.92947 7.2358 4.95485L7.12215 5.34666Z" fill="white"/>
<path d="M14.3182 13.503L13.5909 14.1782M4.15777 4.54228L15.9624 14.5877C16.2555 14.8371 16.2654 15.2629 15.9843 15.5239V15.5239C15.7043 15.7839 15.2496 15.7777 14.9805 15.508C10.9047 11.4231 3.72842 4.20747 4.15777 4.54228Z" stroke="white"/>
</svg>
