<svg width="17" height="17" viewBox="0 0 17 17" fill="none" xmlns="http://www.w3.org/2000/svg">
<path d="M5.54529 3.81606C5.52634 4.04147 5.19834 4.09847 5.09284 3.89468L4.52477 2.79755C4.48803 2.72646 4.41317 2.67895 4.32852 2.6728L3.02127 2.57797C2.77843 2.56037 2.71704 2.25589 2.93658 2.15794L4.11838 1.63061C4.19491 1.59645 4.24619 1.52703 4.25275 1.44842L4.35492 0.234818C4.37388 0.00940731 4.70188 -0.0475867 4.80737 0.156199L5.37544 1.25334C5.41218 1.32443 5.48695 1.37195 5.5717 1.37808L6.87894 1.47291C7.12178 1.49051 7.18317 1.79499 6.96363 1.89294L5.78183 2.42027C5.70521 2.45445 5.65402 2.52385 5.64746 2.60247L5.54529 3.81606Z" fill="white"/>
<path d="M1.79224 4.6442C1.76058 4.75336 1.59373 4.75336 1.56208 4.6442L1.39161 4.05649C1.3806 4.01841 1.34852 3.98867 1.30752 3.97842L0.674452 3.82018C0.556848 3.79079 0.556848 3.63591 0.674452 3.60652L1.30752 3.44828C1.34852 3.43802 1.3806 3.40828 1.39161 3.37021L1.56208 2.78249C1.59373 2.67333 1.76058 2.67333 1.79224 2.78249L1.96271 3.37021C1.97372 3.40828 2.00575 3.43802 2.0468 3.44828L2.67986 3.60652C2.79747 3.63591 2.79747 3.79079 2.67986 3.82018L2.0468 3.97842C2.00575 3.98867 1.97372 4.01841 1.96271 4.05649L1.79224 4.6442Z" fill="white"/>
<path d="M3.97436 8.01993C3.94271 8.1291 3.77586 8.1291 3.74421 8.01993L3.57374 7.43222C3.56273 7.39414 3.53065 7.3644 3.48965 7.35415L2.85658 7.19591C2.73898 7.16652 2.73898 7.01164 2.85658 6.98225L3.48965 6.82401C3.53065 6.81375 3.56273 6.78402 3.57374 6.74594L3.74421 6.15822C3.77586 6.04906 3.94271 6.04906 3.97436 6.15822L4.14483 6.74594C4.15585 6.78402 4.18788 6.81375 4.22892 6.82401L4.86199 6.98225C4.9796 7.01164 4.9796 7.16652 4.86199 7.19591L4.22892 7.35415C4.18788 7.3644 4.15585 7.39414 4.14483 7.43222L3.97436 8.01993Z" fill="white"/>
<path d="M2.11751 6.69694C2.09641 6.76972 1.98518 6.76972 1.96408 6.69694L1.85043 6.30513C1.84309 6.27975 1.8217 6.25992 1.79437 6.25309L1.37232 6.14759C1.29392 6.128 1.29392 6.02475 1.37232 6.00515L1.79437 5.89966C1.8217 5.89282 1.84309 5.873 1.85043 5.84761L1.96408 5.4558C1.98518 5.38303 2.09641 5.38303 2.11751 5.4558L2.23116 5.84761C2.2385 5.873 2.25986 5.89282 2.28722 5.89966L2.70926 6.00515C2.78767 6.02475 2.78767 6.128 2.70926 6.14759L2.28722 6.25309C2.25986 6.25992 2.2385 6.27975 2.23116 6.30513L2.11751 6.69694Z" fill="white"/>
<path d="M7.20882 5.34666C7.18772 5.41944 7.07649 5.41944 7.05538 5.34666L6.94174 4.95485C6.9344 4.92947 6.91301 4.90964 6.88568 4.90281L6.46363 4.79731C6.38523 4.77772 6.38523 4.67447 6.46363 4.65487L6.88568 4.54938C6.91301 4.54254 6.9344 4.52272 6.94174 4.49733L7.05538 4.10552C7.07649 4.03275 7.18772 4.03275 7.20882 4.10552L7.32247 4.49733C7.32981 4.52272 7.35117 4.54254 7.37853 4.54938L7.80057 4.65487C7.87898 4.67447 7.87898 4.77772 7.80057 4.79731L7.37853 4.90281C7.35117 4.90964 7.32981 4.92947 7.32247 4.95485L7.20882 5.34666Z" fill="white"/>
<path d="M14.4049 13.503L13.6776 14.1782M4.24444 4.54228L16.0491 14.5877C16.3421 14.8371 16.3521 15.2629 16.071 15.5239V15.5239C15.791 15.7839 15.3363 15.7777 15.0672 15.508C10.9914 11.4231 3.81509 4.20747 4.24444 4.54228Z" stroke="white"/>
</svg>
