<svg width="877" height="698" viewBox="0 0 877 698" fill="none" xmlns="http://www.w3.org/2000/svg">
<g opacity="0.7">
<path fill-rule="evenodd" clip-rule="evenodd" d="M74.4165 555.549C59.9177 509.393 82.0608 388.172 101.66 336.012C119.873 287.541 131.258 266.471 175.339 227.821C217.618 190.749 299.67 161.723 351.353 137.789C417.586 107.116 490.167 24.6264 545.847 47.1018C603.125 70.2218 567.555 155.888 576.03 213.26C581.664 251.399 589.394 286.419 587.118 326.479C584.285 376.323 605.112 432.504 561.177 474.632C517.303 516.7 446.87 493.706 389.394 516.064C318.652 543.582 258.056 625.989 190.497 618.821C125.069 611.878 91.1914 608.95 74.4165 555.549Z" fill="url(#paint0_linear_3568_702)" fill-opacity="0.3"/>
<path fill-rule="evenodd" clip-rule="evenodd" d="M181.04 517.17C161.261 479.995 152.418 437.489 162.504 391.567C171.878 348.89 200.941 308.462 235.06 271.219C267.785 235.498 310.195 229.513 353.306 203.8C408.554 170.847 467.471 87.8944 520.932 100.711C575.928 113.895 556.314 189.685 572.293 236.933C582.915 268.34 594.974 296.903 598.745 330.783C603.436 372.939 630.378 417.844 596.895 457.989C563.458 498.079 496.623 486.432 448.059 511.451C388.287 542.246 345.639 618.021 283.695 619.348C223.705 620.632 203.924 560.181 181.04 517.17Z" fill="url(#paint1_linear_3568_702)" fill-opacity="0.4"/>
<path opacity="0.5" fill-rule="evenodd" clip-rule="evenodd" d="M263.622 462.153C257.823 421.037 263.015 377.123 285.481 334.097C306.359 294.112 343.461 260.772 383.944 231.712C422.773 203.84 466.124 187.981 510.858 172.315C568.187 152.239 638.548 103.166 680.579 127.832C723.816 153.204 684.192 223.548 683.699 273.744C683.372 307.111 685.134 337.996 678.182 372.261C669.532 414.897 679.154 465.247 638.344 497.313C597.589 529.335 543.728 502.814 494.522 516.57C433.961 533.499 374.571 598.647 321.005 586.024C269.129 573.798 270.329 509.724 263.622 462.153Z" fill="url(#paint2_linear_3568_702)" fill-opacity="0.6"/>
</g>
<defs>
<linearGradient id="paint0_linear_3568_702" x1="627.319" y1="372.108" x2="130.63" y2="359.783" gradientUnits="userSpaceOnUse">
<stop stop-color="#9EE6F7" stop-opacity="0"/>
<stop offset="1" stop-color="#9EE6F7" stop-opacity="0.46"/>
</linearGradient>
<linearGradient id="paint1_linear_3568_702" x1="643.164" y1="375.652" x2="196.766" y2="440.831" gradientUnits="userSpaceOnUse">
<stop stop-color="#9EE6F7" stop-opacity="0"/>
<stop offset="1" stop-color="#9EE6F7" stop-opacity="0.46"/>
</linearGradient>
<linearGradient id="paint2_linear_3568_702" x1="702.815" y1="426.507" x2="305.62" y2="358.159" gradientUnits="userSpaceOnUse">
<stop stop-color="#005AE2"/>
<stop offset="1" stop-color="#73E6FF" stop-opacity="0.38"/>
</linearGradient>
</defs>
</svg>
