<svg width="24" height="24" viewBox="0 0 24 24" fill="none" xmlns="http://www.w3.org/2000/svg">
<path d="M20.7007 1.4375C21.1304 1.4375 21.5112 1.58398 21.8433 1.87695C22.1753 2.16992 22.3413 2.53125 22.3413 2.96094V21.4766C22.3413 21.9062 22.1753 22.2676 21.8433 22.5605C21.5112 22.8535 21.1304 23 20.7007 23H2.30225C1.87256 23 1.50146 22.8535 1.18896 22.5605C0.876465 22.2676 0.720215 21.9062 0.720215 21.4766V2.96094C0.720215 2.53125 0.876465 2.16992 1.18896 1.87695C1.50146 1.58398 1.87256 1.4375 2.30225 1.4375H20.7007ZM7.10693 19.8359V9.52344H3.94287V19.8359H7.10693ZM5.5249 8.11719C6.03271 8.11719 6.47217 7.93164 6.84326 7.56055C7.21436 7.18945 7.3999 6.75 7.3999 6.24219C7.3999 5.73438 7.21436 5.29492 6.84326 4.92383C6.47217 4.55273 6.03271 4.36719 5.5249 4.36719C5.01709 4.36719 4.57764 4.55273 4.20654 4.92383C3.83545 5.29492 3.6499 5.73438 3.6499 6.24219C3.6499 6.78906 3.82568 7.23828 4.17725 7.58984C4.52881 7.94141 4.97803 8.11719 5.5249 8.11719ZM19.1187 19.8359V14.1523C19.1187 12.5898 18.855 11.3887 18.3276 10.5488C17.8003 9.70898 16.7944 9.28906 15.3101 9.28906C13.8257 9.28906 12.8101 9.83594 12.2632 10.9297H12.2046V9.52344H9.15771V19.8359H12.3218V14.7383C12.3218 12.9805 12.9663 12.1016 14.2554 12.1016C14.7632 12.1016 15.144 12.2676 15.3979 12.5996C15.6519 12.9316 15.7983 13.2441 15.8374 13.5371C15.8765 13.8301 15.896 14.25 15.896 14.7969V19.8359H19.1187Z" fill="#141414"/>
</svg>
