<svg width="17" height="17" viewBox="0 0 17 17" fill="none" xmlns="http://www.w3.org/2000/svg">
<path d="M4.95887 3.81606C4.93991 4.04147 4.61191 4.09847 4.50642 3.89468L3.93834 2.79755C3.9016 2.72646 3.82675 2.67895 3.74209 2.6728L2.43485 2.57797C2.192 2.56037 2.13061 2.25589 2.35016 2.15794L3.53196 1.63061C3.60849 1.59645 3.65977 1.52703 3.66632 1.44842L3.76849 0.234818C3.78745 0.00940731 4.11545 -0.0475867 4.22095 0.156199L4.78902 1.25334C4.82576 1.32443 4.90052 1.37195 4.98527 1.37808L6.29252 1.47291C6.53536 1.49051 6.59675 1.79499 6.3772 1.89294L5.1954 2.42027C5.11878 2.45445 5.06759 2.52385 5.06104 2.60247L4.95887 3.81606Z" fill="white"/>
<path d="M1.20581 4.6442C1.17416 4.75336 1.00731 4.75336 0.975654 4.6442L0.805184 4.05649C0.794172 4.01841 0.76209 3.98867 0.721093 3.97842L0.0880257 3.82018C-0.0295779 3.79079 -0.0295779 3.63591 0.0880257 3.60652L0.721093 3.44828C0.76209 3.43802 0.794172 3.40828 0.805184 3.37021L0.975654 2.78249C1.00731 2.67333 1.17416 2.67333 1.20581 2.78249L1.37628 3.37021C1.38729 3.40828 1.41933 3.43802 1.46037 3.44828L2.09344 3.60652C2.21104 3.63591 2.21104 3.79079 2.09344 3.82018L1.46037 3.97842C1.41933 3.98867 1.38729 4.01841 1.37628 4.05649L1.20581 4.6442Z" fill="white"/>
<path d="M3.38794 8.01993C3.35628 8.1291 3.18944 8.1291 3.15778 8.01993L2.98731 7.43222C2.9763 7.39414 2.94422 7.3644 2.90322 7.35415L2.27015 7.19591C2.15255 7.16652 2.15255 7.01164 2.27015 6.98225L2.90322 6.82401C2.94422 6.81375 2.9763 6.78402 2.98731 6.74594L3.15778 6.15822C3.18944 6.04906 3.35628 6.04906 3.38794 6.15822L3.55841 6.74594C3.56942 6.78402 3.60145 6.81375 3.6425 6.82401L4.27557 6.98225C4.39317 7.01164 4.39317 7.16652 4.27557 7.19591L3.6425 7.35415C3.60145 7.3644 3.56942 7.39414 3.55841 7.43222L3.38794 8.01993Z" fill="white"/>
<path d="M1.53109 6.69688C1.50998 6.76966 1.39875 6.76966 1.37765 6.69688L1.264 6.30507C1.25666 6.27969 1.23527 6.25986 1.20794 6.25303L0.785897 6.14753C0.707495 6.12794 0.707495 6.02469 0.785897 6.00509L1.20794 5.8996C1.23527 5.89276 1.25666 5.87294 1.264 5.84755L1.37765 5.45574C1.39875 5.38297 1.50998 5.38297 1.53109 5.45574L1.64473 5.84755C1.65207 5.87294 1.67343 5.89276 1.70079 5.8996L2.12284 6.00509C2.20124 6.02469 2.20124 6.12794 2.12284 6.14753L1.70079 6.25303C1.67343 6.25986 1.65207 6.27969 1.64473 6.30507L1.53109 6.69688Z" fill="white"/>
<path d="M6.62239 5.34666C6.60129 5.41944 6.49006 5.41944 6.46896 5.34666L6.35531 4.95485C6.34797 4.92947 6.32658 4.90964 6.29925 4.90281L5.87721 4.79731C5.7988 4.77772 5.7988 4.67447 5.87721 4.65487L6.29925 4.54938C6.32658 4.54254 6.34797 4.52272 6.35531 4.49733L6.46896 4.10552C6.49006 4.03275 6.60129 4.03275 6.62239 4.10552L6.73604 4.49733C6.74338 4.52272 6.76474 4.54254 6.7921 4.54938L7.21415 4.65487C7.29255 4.67447 7.29255 4.77772 7.21415 4.79731L6.7921 4.90281C6.76474 4.90964 6.74338 4.92947 6.73604 4.95485L6.62239 5.34666Z" fill="white"/>
<path d="M13.8184 13.503L13.0912 14.1782M3.65802 4.54228L15.4627 14.5877C15.7557 14.8371 15.7657 15.2629 15.4846 15.5239V15.5239C15.2046 15.7839 14.7499 15.7777 14.4807 15.508C10.405 11.4231 3.22867 4.20747 3.65802 4.54228Z" stroke="white"/>
</svg>
