<svg width="25" height="24" viewBox="0 0 25 24" fill="none" xmlns="http://www.w3.org/2000/svg">
<path d="M23.6466 0.439381C23.0607 -0.14646 22.1026 -0.14646 21.5168 0.439381L18.4637 3.49483C17.2128 2.66275 15.7774 2.24971 14.3359 2.24971C12.4169 2.24971 10.4731 2.98219 9.03312 4.44691L4.5331 8.94716C1.96677 11.5106 1.65045 15.4747 3.57814 18.384L0.52532 21.4394C-0.0605232 22.0253 -0.0605232 22.9745 0.52532 23.5606C0.818361 23.8536 1.20212 24 1.58589 24C1.96989 24 2.35341 23.8536 2.64645 23.5606L5.69927 20.5051C6.95039 21.3372 8.39448 21.7502 9.83593 21.7502C11.73 21.7502 13.6738 21.0178 15.1388 19.553L19.6301 15.053C22.1965 12.4893 22.5128 8.52524 20.5849 5.61595L23.6466 2.56051C24.2324 1.97466 24.2324 1.02522 23.6466 0.439381ZM18.8271 9.74996C18.8271 10.9512 18.3584 12.0821 17.509 12.9317L13.0176 17.4317C12.1651 18.2813 11.0124 18.75 9.83593 18.75C9.15624 18.75 8.50584 18.5832 7.90824 18.2988L10.1218 16.0605C10.7076 15.4747 10.7076 14.5255 10.1218 13.9394C9.56065 13.3536 8.61144 13.3536 8.0256 13.9394L5.78735 16.1777C5.50031 15.5829 5.33614 14.9325 5.33614 14.25C5.33614 13.0488 5.80487 11.9179 6.65447 11.0683L11.1295 6.56828C11.9791 5.71867 13.1347 5.24995 14.3359 5.24995C15.0156 5.24995 15.6629 5.41675 16.2608 5.70115L13.9786 7.9862C13.3927 8.57204 13.3927 9.52124 13.9786 10.1073C14.2716 10.4004 14.6552 10.5468 15.0392 10.5468C15.42 10.5468 15.8038 10.4004 16.0966 10.1073L18.3761 7.82228C18.6629 8.41676 18.8271 9.0674 18.8271 9.74996Z" fill="#0065FE"/>
</svg>
